<svg id="my-svg" width="100%" xmlns="http://www.w3.org/2000/svg" xmlns:xlink="http://www.w3.org/1999/xlink" class="flowchart" style="max-width: 1028.57px; background-color: white;" viewBox="0 0 1028.5703125 1299.4375" role="graphics-document document" aria-roledescription="flowchart-v2"><style>#my-svg{font-family:"trebuchet ms",verdana,arial,sans-serif;font-size:16px;fill:#333;}@keyframes edge-animation-frame{from{stroke-dashoffset:0;}}@keyframes dash{to{stroke-dashoffset:0;}}#my-svg .edge-animation-slow{stroke-dasharray:9,5!important;stroke-dashoffset:900;animation:dash 50s linear infinite;stroke-linecap:round;}#my-svg .edge-animation-fast{stroke-dasharray:9,5!important;stroke-dashoffset:900;animation:dash 20s linear infinite;stroke-linecap:round;}#my-svg .error-icon{fill:#552222;}#my-svg .error-text{fill:#552222;stroke:#552222;}#my-svg .edge-thickness-normal{stroke-width:1px;}#my-svg .edge-thickness-thick{stroke-width:3.5px;}#my-svg .edge-pattern-solid{stroke-dasharray:0;}#my-svg .edge-thickness-invisible{stroke-width:0;fill:none;}#my-svg .edge-pattern-dashed{stroke-dasharray:3;}#my-svg .edge-pattern-dotted{stroke-dasharray:2;}#my-svg .marker{fill:#333333;stroke:#333333;}#my-svg .marker.cross{stroke:#333333;}#my-svg svg{font-family:"trebuchet ms",verdana,arial,sans-serif;font-size:16px;}#my-svg p{margin:0;}#my-svg .label{font-family:"trebuchet ms",verdana,arial,sans-serif;color:#333;}#my-svg .cluster-label text{fill:#333;}#my-svg .cluster-label span{color:#333;}#my-svg .cluster-label span p{background-color:transparent;}#my-svg .label text,#my-svg span{fill:#333;color:#333;}#my-svg .node rect,#my-svg .node circle,#my-svg .node ellipse,#my-svg .node polygon,#my-svg .node path{fill:#ECECFF;stroke:#9370DB;stroke-width:1px;}#my-svg .rough-node .label text,#my-svg .node .label text,#my-svg .image-shape .label,#my-svg .icon-shape .label{text-anchor:middle;}#my-svg .node .katex path{fill:#000;stroke:#000;stroke-width:1px;}#my-svg .rough-node .label,#my-svg .node .label,#my-svg .image-shape .label,#my-svg .icon-shape .label{text-align:center;}#my-svg .node.clickable{cursor:pointer;}#my-svg .root .anchor path{fill:#333333!important;stroke-width:0;stroke:#333333;}#my-svg .arrowheadPath{fill:#333333;}#my-svg .edgePath .path{stroke:#333333;stroke-width:1px;}#my-svg .flowchart-link{stroke:#333333;fill:none;}#my-svg .edgeLabel{background-color:rgba(232,232,232, 0.8);text-align:center;}#my-svg .edgeLabel p{background-color:rgba(232,232,232, 0.8);}#my-svg .edgeLabel rect{opacity:0.5;background-color:rgba(232,232,232, 0.8);fill:rgba(232,232,232, 0.8);}#my-svg .labelBkg{background-color:rgba(232, 232, 232, 0.5);}#my-svg .cluster rect{fill:#ffffde;stroke:#aaaa33;stroke-width:1px;}#my-svg .cluster text{fill:#333;}#my-svg .cluster span{color:#333;}#my-svg div.mermaidTooltip{position:absolute;text-align:center;max-width:200px;padding:2px;font-family:"trebuchet ms",verdana,arial,sans-serif;font-size:12px;background:hsl(80, 100%, 96.2745098039%);border:1px solid #aaaa33;border-radius:2px;pointer-events:none;z-index:100;}#my-svg .flowchartTitleText{text-anchor:middle;font-size:18px;fill:#333;}#my-svg rect.text{fill:none;stroke-width:0;}#my-svg .icon-shape,#my-svg .image-shape{background-color:rgba(232,232,232, 0.8);text-align:center;}#my-svg .icon-shape p,#my-svg .image-shape p{background-color:rgba(232,232,232, 0.8);padding:2px;}#my-svg .icon-shape .label rect,#my-svg .image-shape .label rect{opacity:0.5;background-color:rgba(232,232,232, 0.8);fill:rgba(232,232,232, 0.8);}#my-svg .label-icon{display:inline-block;height:1em;overflow:visible;vertical-align:-0.125em;}#my-svg .node .label-icon path{fill:currentColor;stroke:revert;stroke-width:revert;}#my-svg .node .neo-node{stroke:#9370DB;}#my-svg [data-look="neo"].node rect,#my-svg [data-look="neo"].cluster rect,#my-svg [data-look="neo"].node polygon{stroke:#9370DB;filter:drop-shadow(1px 2px 2px rgba(185, 185, 185, 1));}#my-svg [data-look="neo"].swimlane.cluster rect{filter:none;}#my-svg [data-look="neo"].node path{stroke:#9370DB;stroke-width:1px;}#my-svg [data-look="neo"].node .outer-path{filter:drop-shadow(1px 2px 2px rgba(185, 185, 185, 1));}#my-svg [data-look="neo"].node .neo-line path{stroke:#9370DB;filter:none;}#my-svg [data-look="neo"].node circle{stroke:#9370DB;filter:drop-shadow(1px 2px 2px rgba(185, 185, 185, 1));}#my-svg [data-look="neo"].node circle .state-start{fill:#000000;}#my-svg [data-look="neo"].icon-shape .icon{fill:#9370DB;filter:drop-shadow(1px 2px 2px rgba(185, 185, 185, 1));}#my-svg [data-look="neo"].icon-shape .icon-neo path{stroke:#9370DB;filter:drop-shadow(1px 2px 2px rgba(185, 185, 185, 1));}#my-svg :root{--mermaid-font-family:"trebuchet ms",verdana,arial,sans-serif;}#my-svg .sec&gt;*{fill:rgb(254, 202, 202)!important;stroke:rgb(185, 28, 28)!important;color:rgb(69, 10, 10)!important;}#my-svg .sec span{fill:rgb(254, 202, 202)!important;stroke:rgb(185, 28, 28)!important;color:rgb(69, 10, 10)!important;}#my-svg .sec tspan{fill:rgb(69, 10, 10)!important;}</style><g><marker id="my-svg_flowchart-v2-pointEnd" class="marker flowchart-v2" viewBox="0 0 10 10" refX="5" refY="5" markerUnits="userSpaceOnUse" markerWidth="8" markerHeight="8" orient="auto"><path d="M 0 0 L 10 5 L 0 10 z" class="arrowMarkerPath" style="stroke-width: 1; stroke-dasharray: 1, 0;"/></marker><marker id="my-svg_flowchart-v2-pointStart" class="marker flowchart-v2" viewBox="0 0 10 10" refX="4.5" refY="5" markerUnits="userSpaceOnUse" markerWidth="8" markerHeight="8" orient="auto"><path d="M 0 5 L 10 10 L 10 0 z" class="arrowMarkerPath" style="stroke-width: 1; stroke-dasharray: 1, 0;"/></marker><marker id="my-svg_flowchart-v2-pointEnd-margin" class="marker flowchart-v2" viewBox="0 0 11.5 14" refX="11.5" refY="7" markerUnits="userSpaceOnUse" markerWidth="10.5" markerHeight="14" orient="auto"><path d="M 0 0 L 11.5 7 L 0 14 z" class="arrowMarkerPath" style="stroke-width: 0; stroke-dasharray: 1, 0;"/></marker><marker id="my-svg_flowchart-v2-pointStart-margin" class="marker flowchart-v2" viewBox="0 0 11.5 14" refX="1" refY="7" markerUnits="userSpaceOnUse" markerWidth="11.5" markerHeight="14" orient="auto"><polygon points="0,7 11.5,14 11.5,0" class="arrowMarkerPath" style="stroke-width: 0; stroke-dasharray: 1, 0;"/></marker><marker id="my-svg_flowchart-v2-circleEnd" class="marker flowchart-v2" viewBox="0 0 10 10" refX="11" refY="5" markerUnits="userSpaceOnUse" markerWidth="11" markerHeight="11" orient="auto"><circle cx="5" cy="5" r="5" class="arrowMarkerPath" style="stroke-width: 1; stroke-dasharray: 1, 0;"/></marker><marker id="my-svg_flowchart-v2-circleStart" class="marker flowchart-v2" viewBox="0 0 10 10" refX="-1" refY="5" markerUnits="userSpaceOnUse" markerWidth="11" markerHeight="11" orient="auto"><circle cx="5" cy="5" r="5" class="arrowMarkerPath" style="stroke-width: 1; stroke-dasharray: 1, 0;"/></marker><marker id="my-svg_flowchart-v2-circleEnd-margin" class="marker flowchart-v2" viewBox="0 0 10 10" refY="5" refX="12.25" markerUnits="userSpaceOnUse" markerWidth="14" markerHeight="14" orient="auto"><circle cx="5" cy="5" r="5" class="arrowMarkerPath" style="stroke-width: 0; stroke-dasharray: 1, 0;"/></marker><marker id="my-svg_flowchart-v2-circleStart-margin" class="marker flowchart-v2" viewBox="0 0 10 10" refX="-2" refY="5" markerUnits="userSpaceOnUse" markerWidth="14" markerHeight="14" orient="auto"><circle cx="5" cy="5" r="5" class="arrowMarkerPath" style="stroke-width: 0; stroke-dasharray: 1, 0;"/></marker><marker id="my-svg_flowchart-v2-crossEnd" class="marker cross flowchart-v2" viewBox="0 0 11 11" refX="12" refY="5.2" markerUnits="userSpaceOnUse" markerWidth="11" markerHeight="11" orient="auto"><path d="M 1,1 l 9,9 M 10,1 l -9,9" class="arrowMarkerPath" style="stroke-width: 2; stroke-dasharray: 1, 0;"/></marker><marker id="my-svg_flowchart-v2-crossStart" class="marker cross flowchart-v2" viewBox="0 0 11 11" refX="-1" refY="5.2" markerUnits="userSpaceOnUse" markerWidth="11" markerHeight="11" orient="auto"><path d="M 1,1 l 9,9 M 10,1 l -9,9" class="arrowMarkerPath" style="stroke-width: 2; stroke-dasharray: 1, 0;"/></marker><marker id="my-svg_flowchart-v2-crossEnd-margin" class="marker cross flowchart-v2" viewBox="0 0 15 15" refX="17.7" refY="7.5" markerUnits="userSpaceOnUse" markerWidth="12" markerHeight="12" orient="auto"><path d="M 1,1 L 14,14 M 1,14 L 14,1" class="arrowMarkerPath" style="stroke-width: 2.5;"/></marker><marker id="my-svg_flowchart-v2-crossStart-margin" class="marker cross flowchart-v2" viewBox="0 0 15 15" refX="-3.5" refY="7.5" markerUnits="userSpaceOnUse" markerWidth="12" markerHeight="12" orient="auto"><path d="M 1,1 L 14,14 M 1,14 L 14,1" class="arrowMarkerPath" style="stroke-width: 2.5; stroke-dasharray: 1, 0;"/></marker><g class="root"><g class="clusters"/><g class="edgePaths"><path d="M247.504,71.5L247.421,75.583C247.337,79.667,247.171,87.833,247.087,95.417C247.004,103,247.004,110,247.004,113.5L247.004,117" id="my-svg-L_start_plat_0" class="edge-thickness-normal edge-pattern-solid edge-thickness-normal edge-pattern-solid flowchart-link" style=";" data-edge="true" data-et="edge" data-id="L_start_plat_0" data-points="W3sieCI6MjQ3LjUwMzkwNjI1LCJ5Ijo3MS40OTk5OTk5OTk5OTk5OX0seyJ4IjoyNDcuMDAzOTA2MjUsInkiOjk2fSx7IngiOjI0Ny4wMDM5MDYyNSwieSI6MTIxfV0=" data-look="classic" marker-end="url(#my-svg_flowchart-v2-pointEnd)"/><path d="M207.144,237.687L193.852,250.497C180.56,263.307,153.975,288.927,140.683,325.943C127.391,362.958,127.391,411.37,127.391,435.576L127.391,459.781" id="my-svg-L_plat_platauth_0" class="edge-thickness-normal edge-pattern-solid edge-thickness-normal edge-pattern-solid flowchart-link" style=";" data-edge="true" data-et="edge" data-id="L_plat_platauth_0" data-points="W3sieCI6MjA3LjE0NDA4NDY5ODkyODE3LCJ5IjoyMzcuNjg3MDUzNDQ4OTI4MTd9LHsieCI6MTI3LjM5MDYyNSwieSI6MzE0LjU0Njg3NX0seyJ4IjoxMjcuMzkwNjI1LCJ5Ijo0NjMuNzgxMjV9XQ==" data-look="classic" marker-end="url(#my-svg_flowchart-v2-pointEnd)"/><path d="M295.625,228.926L319.023,243.196C342.422,257.466,389.219,286.007,412.617,305.777C436.016,325.547,436.016,336.547,436.016,342.047L436.016,347.547" id="my-svg-L_plat_pub_0" class="edge-thickness-normal edge-pattern-solid edge-thickness-normal edge-pattern-solid flowchart-link" style=";" data-edge="true" data-et="edge" data-id="L_plat_pub_0" data-points="W3sieCI6Mjk1LjYyNDczNjU4MTIzODY2LCJ5IjoyMjguOTI2MDQ0NjY4NzYxM30seyJ4Ijo0MzYuMDE1NjI1LCJ5IjozMTQuNTQ2ODc1fSx7IngiOjQzNi4wMTU2MjUsInkiOjM1MS41NDY4NzV9XQ==" data-look="classic" marker-end="url(#my-svg_flowchart-v2-pointEnd)"/><path d="M436.016,630.016L436.016,636.182C436.016,642.349,436.016,654.682,436.016,677.104C436.016,699.526,436.016,732.036,436.016,748.292L436.016,764.547" id="my-svg-L_pub_okpub_0" class="edge-thickness-normal edge-pattern-solid edge-thickness-normal edge-pattern-solid flowchart-link" style=";" data-edge="true" data-et="edge" data-id="L_pub_okpub_0" data-points="W3sieCI6NDM2LjAxNTYyNSwieSI6NjMwLjAxNTYyNX0seyJ4Ijo0MzYuMDE1NjI1LCJ5Ijo2NjcuMDE1NjI1fSx7IngiOjQzNi4wMTU2MjUsInkiOjc2OC41NDY4NzV9XQ==" data-look="classic" marker-end="url(#my-svg_flowchart-v2-pointEnd)"/><path d="M508.643,557.388L528.566,575.659C548.489,593.931,588.334,630.473,608.257,654.244C628.18,678.016,628.18,689.016,628.18,694.516L628.18,700.016" id="my-svg-L_pub_sess_0" class="edge-thickness-normal edge-pattern-solid edge-thickness-normal edge-pattern-solid flowchart-link" style=";" data-edge="true" data-et="edge" data-id="L_pub_sess_0" data-points="W3sieCI6NTA4LjY0MzA4NTk2NjQ5MzQ2LCJ5Ijo1NTcuMzg4MTY0MDMzNTA2NX0seyJ4Ijo2MjguMTc5Njg3NSwieSI6NjY3LjAxNTYyNX0seyJ4Ijo2MjguMTc5Njg3NSwieSI6NzA0LjAxNTYyNX1d" data-look="classic" marker-end="url(#my-svg_flowchart-v2-pointEnd)"/><path d="M587.985,846.883L577.911,859.749C567.837,872.615,547.69,898.346,537.617,927.076C527.543,955.805,527.543,987.531,527.543,1003.395L527.543,1019.258" id="my-svg-L_sess_tologin_0" class="edge-thickness-normal edge-pattern-solid edge-thickness-normal edge-pattern-solid flowchart-link" style=";" data-edge="true" data-et="edge" data-id="L_sess_tologin_0" data-points="W3sieCI6NTg3Ljk4NDY5NTUzMjYyNDksInkiOjg0Ni44ODMxMzMwMzI2MjQ5fSx7IngiOjUyNy41NDI5Njg3NSwieSI6OTI0LjA3ODEyNX0seyJ4Ijo1MjcuNTQyOTY4NzUsInkiOjEwMjMuMjU3ODEyNX1d" data-look="classic" marker-end="url(#my-svg_flowchart-v2-pointEnd)"/><path d="M672.618,842.64L685.426,856.213C698.234,869.786,723.849,896.932,736.657,916.005C749.465,935.078,749.465,946.078,749.465,951.578L749.465,957.078" id="my-svg-L_sess_scope_0" class="edge-thickness-normal edge-pattern-solid edge-thickness-normal edge-pattern-solid flowchart-link" style=";" data-edge="true" data-et="edge" data-id="L_sess_scope_0" data-points="W3sieCI6NjcyLjYxNzg0OTYwNzMyODgsInkiOjg0Mi42Mzk5NjI4OTI2NzEyfSx7IngiOjc0OS40NjQ4NDM3NSwieSI6OTI0LjA3ODEyNX0seyJ4Ijo3NDkuNDY0ODQzNzUsInkiOjk2MS4wNzgxMjV9XQ==" data-look="classic" marker-end="url(#my-svg_flowchart-v2-pointEnd)"/><path d="M682.501,1072.474L630.273,1089.801C578.045,1107.128,473.589,1141.783,421.361,1166.61C369.133,1191.438,369.133,1206.438,369.133,1213.938L369.133,1221.438" id="my-svg-L_scope_toportal_0" class="edge-thickness-normal edge-pattern-solid edge-thickness-normal edge-pattern-solid flowchart-link" style=";" data-edge="true" data-et="edge" data-id="L_scope_toportal_0" data-points="W3sieCI6NjgyLjUwMTE1Nzc0MzI0ODEsInkiOjEwNzIuNDczODEzOTkzMjQ4fSx7IngiOjM2OS4xMzI4MTI1LCJ5IjoxMTc2LjQzNzV9LHsieCI6MzY5LjEzMjgxMjUsInkiOjEyMjUuNDM3NX1d" data-look="classic" marker-end="url(#my-svg_flowchart-v2-pointEnd)"/><path d="M702.385,1092.358L686.714,1106.371C671.043,1120.384,639.701,1148.411,624.03,1169.924C608.359,1191.438,608.359,1206.438,608.359,1213.938L608.359,1221.438" id="my-svg-L_scope_todash_0" class="edge-thickness-normal edge-pattern-solid edge-thickness-normal edge-pattern-solid flowchart-link" style=";" data-edge="true" data-et="edge" data-id="L_scope_todash_0" data-points="W3sieCI6NzAyLjM4NTAwNjY3OTMwMjEsInkiOjEwOTIuMzU3NjYyOTI5MzAyM30seyJ4Ijo2MDguMzU5Mzc1LCJ5IjoxMTc2LjQzNzV9LHsieCI6NjA4LjM1OTM3NSwieSI6MTIyNS40Mzc1fV0=" data-look="classic" marker-end="url(#my-svg_flowchart-v2-pointEnd)"/><path d="M796.545,1092.358L812.216,1106.371C827.887,1120.384,859.228,1148.411,874.899,1167.924C890.57,1187.438,890.57,1198.438,890.57,1203.938L890.57,1209.438" id="my-svg-L_scope_okapp_0" class="edge-thickness-normal edge-pattern-solid edge-thickness-normal edge-pattern-solid flowchart-link" style=";" data-edge="true" data-et="edge" data-id="L_scope_okapp_0" data-points="W3sieCI6Nzk2LjU0NDY4MDgyMDY5NzksInkiOjEwOTIuMzU3NjYyOTI5MzAyM30seyJ4Ijo4OTAuNTcwMzEyNSwieSI6MTE3Ni40Mzc1fSx7IngiOjg5MC41NzAzMTI1LCJ5IjoxMjEzLjQzNzV9XQ==" data-look="classic" marker-end="url(#my-svg_flowchart-v2-pointEnd)"/></g><g class="edgeLabels"><g class="edgeLabel"><g class="label" data-id="L_start_plat_0" transform="translate(0, 0)"><foreignObject width="0" height="0"><div xmlns="http://www.w3.org/1999/xhtml" class="labelBkg" style="display: table-cell; white-space: nowrap; line-height: 1.5; max-width: 200px; text-align: center;"><span class="edgeLabel"></span></div></foreignObject></g></g><g class="edgeLabel" transform="translate(127.390625, 314.546875)"><g class="label" data-id="L_plat_platauth_0" transform="translate(-5.5234375, -12)"><foreignObject width="11.046875" height="24"><div xmlns="http://www.w3.org/1999/xhtml" class="labelBkg" style="display: table-cell; white-space: nowrap; line-height: 1.5; max-width: 200px; text-align: center;"><span class="edgeLabel"><p>sí</p></span></div></foreignObject></g></g><g class="edgeLabel" transform="translate(436.015625, 314.546875)"><g class="label" data-id="L_plat_pub_0" transform="translate(-8.6640625, -12)"><foreignObject width="17.328125" height="24"><div xmlns="http://www.w3.org/1999/xhtml" class="labelBkg" style="display: table-cell; white-space: nowrap; line-height: 1.5; max-width: 200px; text-align: center;"><span class="edgeLabel"><p>no</p></span></div></foreignObject></g></g><g class="edgeLabel" transform="translate(436.015625, 667.015625)"><g class="label" data-id="L_pub_okpub_0" transform="translate(-5.5234375, -12)"><foreignObject width="11.046875" height="24"><div xmlns="http://www.w3.org/1999/xhtml" class="labelBkg" style="display: table-cell; white-space: nowrap; line-height: 1.5; max-width: 200px; text-align: center;"><span class="edgeLabel"><p>sí</p></span></div></foreignObject></g></g><g class="edgeLabel" transform="translate(628.1796875, 667.015625)"><g class="label" data-id="L_pub_sess_0" transform="translate(-8.6640625, -12)"><foreignObject width="17.328125" height="24"><div xmlns="http://www.w3.org/1999/xhtml" class="labelBkg" style="display: table-cell; white-space: nowrap; line-height: 1.5; max-width: 200px; text-align: center;"><span class="edgeLabel"><p>no</p></span></div></foreignObject></g></g><g class="edgeLabel" transform="translate(527.54296875, 924.078125)"><g class="label" data-id="L_sess_tologin_0" transform="translate(-8.6640625, -12)"><foreignObject width="17.328125" height="24"><div xmlns="http://www.w3.org/1999/xhtml" class="labelBkg" style="display: table-cell; white-space: nowrap; line-height: 1.5; max-width: 200px; text-align: center;"><span class="edgeLabel"><p>no</p></span></div></foreignObject></g></g><g class="edgeLabel" transform="translate(749.46484375, 924.078125)"><g class="label" data-id="L_sess_scope_0" transform="translate(-5.5234375, -12)"><foreignObject width="11.046875" height="24"><div xmlns="http://www.w3.org/1999/xhtml" class="labelBkg" style="display: table-cell; white-space: nowrap; line-height: 1.5; max-width: 200px; text-align: center;"><span class="edgeLabel"><p>sí</p></span></div></foreignObject></g></g><g class="edgeLabel" transform="translate(369.1328125, 1176.4375)"><g class="label" data-id="L_scope_toportal_0" transform="translate(-75.046875, -12)"><foreignObject width="150.09375" height="24"><div xmlns="http://www.w3.org/1999/xhtml" class="labelBkg" style="display: table-cell; white-space: nowrap; line-height: 1.5; max-width: 200px; text-align: center;"><span class="edgeLabel"><p>client en /dashboard</p></span></div></foreignObject></g></g><g class="edgeLabel" transform="translate(608.359375, 1176.4375)"><g class="label" data-id="L_scope_todash_0" transform="translate(-54.3359375, -12)"><foreignObject width="108.671875" height="24"><div xmlns="http://www.w3.org/1999/xhtml" class="labelBkg" style="display: table-cell; white-space: nowrap; line-height: 1.5; max-width: 200px; text-align: center;"><span class="edgeLabel"><p>firm en /portal</p></span></div></foreignObject></g></g><g class="edgeLabel" transform="translate(890.5703125, 1176.4375)"><g class="label" data-id="L_scope_okapp_0" transform="translate(-29.96875, -12)"><foreignObject width="59.9375" height="24"><div xmlns="http://www.w3.org/1999/xhtml" class="labelBkg" style="display: table-cell; white-space: nowrap; line-height: 1.5; max-width: 200px; text-align: center;"><span class="edgeLabel"><p>coincide</p></span></div></foreignObject></g></g></g><g class="nodes"><g class="node default" id="my-svg-flowchart-start-0" data-look="classic" transform="translate(247.00390625, 39.5)"><g class="basic label-container outer-path"><path d="M-83.875 -31.5 C-48.310627770270735 -31.5, -12.746255540541469 -31.5, 83.875 -31.5 C83.875 -31.5, 83.875 -31.5, 83.875 -31.5 C84.62803526250931 -31.475851624825545, 85.38107052501864 -31.451703249651093, 85.89321192939245 -31.435279871635593 C86.4451825400883 -31.382031930663548, 86.99715315078414 -31.3287839896915, 87.90313059306193 -31.241385435432253 C88.64876483590722 -31.120837073528943, 89.3943990787525 -31.000288711625632, 89.89649680409322 -30.91911344521856 C90.42848009278144 -30.79769173109086, 90.96046338146968 -30.67627001696316, 91.86511939314947 -30.469788185729428 C92.50897157082723 -30.278696239043718, 93.15282374850499 -30.087604292358005, 93.80090886774406 -29.895256030836062 C94.37566366149021 -29.683740953762406, 94.95041845523635 -29.472225876688753, 95.69591065370028 -29.197877856399685 C96.38895194447052 -28.89108903531515, 97.08199323524077 -28.584300214230616, 97.54233778220308 -28.380519338926202 C98.10354297577246 -28.08773894891014, 98.66474816934183 -27.79495855889408, 99.33260288812403 -27.44653917988677 C99.93578560125265 -27.080886274493125, 100.53896831438126 -26.715233369099483, 101.05934938813228 -26.399775304092984 C101.52084292530503 -26.077857390294508, 101.98233646247779 -25.75593947649603, 102.7154817104733 -25.244529088840633 C103.24034553319534 -24.82596415743271, 103.76520935591739 -24.40739922602479, 104.29419445219533 -23.985547688627737 C104.68106827006271 -23.634199123360876, 105.06794208793009 -23.28285055809402, 105.78900034400982 -22.62800452807842 C106.32423992794008 -22.07532571368333, 106.85947951187036 -21.522646899288237, 107.19375690787243 -21.177478043231485 C107.61757620270525 -20.6796357835198, 108.04139549753808 -20.181793523808114, 108.50269169774293 -19.63992875855011 C108.9066074294693 -19.098718475516925, 109.31052316119568 -18.557508192483745, 109.7104260198041 -18.02167479384835 C110.08239119035487 -17.45023640524863, 110.45435636090563 -16.87879801664891, 110.8119970346684 -16.329365901781543 C111.10702468841858 -15.805514427758636, 111.40205234216877 -15.28166295373573, 111.8028781507495 -14.56995614258631 C111.98695224129617 -14.187722355011582, 112.17102633184282 -13.805488567436852, 112.67899762499809 -12.750675308355413 C112.90072506496608 -12.203004244826044, 113.12245250493407 -11.655333181296674, 113.43675529456745 -10.878999214271206 C113.62838887322324 -10.301829408024297, 113.82002245187904 -9.724659601777388, 114.07303737065482 -8.962618978877531 C114.23545924574404 -8.343233975076338, 114.39788112083328 -7.723848971275145, 114.58522923372745 -7.009409419623907 C114.6834347937497 -6.505144624662087, 114.78164035377196 -6.000879829700266, 114.97122617755518 -5.027396693551458 C115.02802578174956 -4.586870179770381, 115.08482538594393 -4.1463436659893045, 115.22944205789975 -3.024725316091981 C115.27842953658309 -2.2617057936178178, 115.32741701526643 -1.4986862711436546, 115.35881581032167 -1.0096246935071378 C115.35881581032167 -0.24581707928037988, 115.35881581032167 0.517990534946378, 115.35881581032167 1.00962469350713 C115.31137843564166 1.7485000949079876, 115.26394106096164 2.4873754963088452, 115.22944205789975 3.02472531609196 C115.15695790774146 3.5868980711051766, 115.08447375758318 4.149070826118393, 114.97122617755518 5.027396693551435 C114.87698299634405 5.511315510767194, 114.78273981513291 5.995234327982951, 114.58522923372745 7.0094094196239 C114.38759464682713 7.763075754846605, 114.1899600599268 8.516742090069311, 114.07303737065482 8.96261897887751 C113.8313616135458 9.690507853487171, 113.58968585643679 10.418396728096832, 113.43675529456746 10.878999214271184 C113.13947877663306 11.613277961019634, 112.84220225869865 12.347556707768083, 112.67899762499809 12.750675308355405 C112.37848478501937 13.374696650515949, 112.07797194504064 13.998717992676493, 111.8028781507495 14.569956142586303 C111.4442418189153 15.206751265624499, 111.08560548708108 15.843546388662695, 110.81199703466841 16.329365901781536 C110.45990241430538 16.87027778930306, 110.10780779394234 17.411189676824584, 109.71042601980412 18.021674793848334 C109.29613282898606 18.57678992665841, 108.88183963816799 19.131905059468483, 108.50269169774295 19.639928758550102 C108.12704773520791 20.081181531690742, 107.75140377267289 20.52243430483138, 107.19375690787246 21.177478043231467 C106.85923491836391 21.522899462165146, 106.52471292885538 21.868320881098825, 105.78900034400982 22.628004528078414 C105.20737055414145 23.156225314155925, 104.62574076427308 23.684446100233437, 104.29419445219536 23.985547688627715 C103.9617665169104 24.250650120738587, 103.62933858162545 24.515752552849463, 102.71548171047331 25.24452908884063 C102.36578633984486 25.488461441322425, 102.0160909692164 25.732393793804224, 101.05934938813229 26.399775304092973 C100.57237687746098 26.694980901830046, 100.08540436678967 26.990186499567123, 99.33260288812404 27.446539179886766 C98.70612193455938 27.773373892081253, 98.07964098099471 28.10020860427574, 97.54233778220309 28.3805193389262 C97.14165691587323 28.557888872674834, 96.74097604954336 28.735258406423466, 95.6959106537003 29.197877856399682 C95.12806180025296 29.40685148360556, 94.56021294680563 29.615825110811436, 93.80090886774407 29.895256030836055 C93.2682873662113 30.05333529670367, 92.73566586467854 30.21141456257128, 91.86511939314951 30.46978818572942 C91.34138657896294 30.589326782891494, 90.81765376477637 30.708865380053567, 89.89649680409323 30.919113445218557 C89.44531802223011 30.992056531726476, 88.99413924036698 31.064999618234395, 87.90313059306196 31.24138543543225 C87.2473517829555 31.30464762855381, 86.59157297284905 31.367909821675372, 85.89321192939245 31.435279871635593 C85.24131829730365 31.456184831582704, 84.58942466521486 31.47708979152981, 83.875 31.5 C83.875 31.5, 83.875 31.5, 83.875 31.5 C46.48841814899332 31.5, 9.101836297986637 31.5, -83.875 31.5 C-84.35006595193154 31.484765559581334, -84.82513190386308 31.46953111916267, -85.89321192939244 31.435279871635593 C-86.49786791703986 31.376949435712465, -87.10252390468726 31.31861899978934, -87.90313059306195 31.24138543543225 C-88.58963124066133 31.130397334620415, -89.27613188826071 31.019409233808585, -89.89649680409323 30.919113445218557 C-90.40624910789089 30.802765808321396, -90.91600141168854 30.686418171424236, -91.86511939314947 30.469788185729428 C-92.56570848803435 30.2618570198348, -93.26629758291921 30.053925853940175, -93.80090886774403 29.89525603083607 C-94.52703136718671 29.62803623883836, -95.25315386662939 29.360816446840644, -95.69591065370028 29.197877856399685 C-96.17075959763339 28.987676314813946, -96.6456085415665 28.77747477322821, -97.54233778220308 28.380519338926206 C-98.15212778165758 28.062392286799927, -98.76191778111209 27.744265234673648, -99.33260288812403 27.446539179886773 C-99.89205506678293 27.10739598147782, -100.45150724544182 26.768252783068863, -101.05934938813226 26.399775304092994 C-101.39531776231837 26.16541831009728, -101.73128613650448 25.931061316101566, -102.7154817104733 25.244529088840636 C-103.33667094097818 24.74914720805266, -103.95786017148306 24.25376532726468, -104.29419445219533 23.98554768862774 C-104.63541097823219 23.675663867775622, -104.97662750426903 23.365780046923508, -105.7890003440098 22.628004528078435 C-106.29185108436668 22.108769853846383, -106.79470182472356 21.589535179614334, -107.19375690787244 21.177478043231478 C-107.59433859619321 20.706931998386118, -107.99492028451398 20.236385953540754, -108.50269169774293 19.639928758550113 C-108.86787844869154 19.1506117814764, -109.23306519964015 18.661294804402687, -109.7104260198041 18.021674793848355 C-110.0317768501045 17.527993623726584, -110.35312768040492 17.034312453604816, -110.8119970346684 16.329365901781557 C-111.19225133048054 15.654185894644307, -111.5725056262927 14.979005887507057, -111.8028781507495 14.569956142586314 C-112.14178847038883 13.866201612336079, -112.48069879002816 13.162447082085844, -112.67899762499809 12.750675308355417 C-112.91718514820715 12.162347520986538, -113.15537267141623 11.574019733617659, -113.43675529456745 10.878999214271209 C-113.68234015448132 10.139336744844261, -113.92792501439521 9.399674275417311, -114.07303737065482 8.962618978877522 C-114.17875200924188 8.559483244930847, -114.28446664782895 8.156347510984174, -114.58522923372743 7.009409419623911 C-114.73253585809844 6.253021036744894, -114.87984248246946 5.496632653865875, -114.97122617755518 5.027396693551461 C-115.05521216478216 4.3760179615280554, -115.13919815200914 3.7246392295046498, -115.22944205789975 3.024725316091999 C-115.27549412820927 2.307427148459004, -115.3215461985188 1.5901289808260084, -115.35881581032167 1.0096246935071416 C-115.35881581032167 0.4246350392069621, -115.35881581032167 -0.16035461509321736, -115.35881581032167 -1.0096246935071262 C-115.30725028685544 -1.8127993444352413, -115.25568476338918 -2.6159739953633565, -115.22944205789975 -3.024725316091956 C-115.16951422620713 -3.489513744611032, -115.10958639451451 -3.954302173130108, -114.97122617755518 -5.027396693551446 C-114.83174545528081 -5.743600723169269, -114.69226473300643 -6.459804752787091, -114.58522923372745 -7.009409419623896 C-114.38670179021572 -7.76648060407241, -114.18817434670399 -8.523551788520924, -114.07303737065482 -8.962618978877506 C-113.88572605261537 -9.526770824806711, -113.6984147345759 -10.090922670735916, -113.43675529456746 -10.878999214271168 C-113.18226269479986 -11.507600855976847, -112.92777009503224 -12.136202497682525, -112.67899762499809 -12.750675308355401 C-112.43635366311244 -13.254530686960027, -112.1937097012268 -13.758386065564656, -111.8028781507495 -14.5699561425863 C-111.52542016629563 -15.06261088965168, -111.24796218184174 -15.555265636717058, -110.8119970346684 -16.329365901781546 C-110.40690297304319 -16.95169916342447, -110.00180891141798 -17.57403242506739, -109.71042601980412 -18.021674793848344 C-109.28378758034404 -18.593331435163428, -108.85714914088396 -19.164988076478508, -108.50269169774295 -19.639928758550102 C-108.06108889674171 -20.158660536517385, -107.61948609574046 -20.677392314484667, -107.19375690787246 -21.177478043231467 C-106.86324182444952 -21.51876200265865, -106.53272674102658 -21.860045962085838, -105.78900034400984 -22.628004528078403 C-105.44775055569508 -22.937918556851233, -105.10650076738034 -23.24783258562406, -104.29419445219536 -23.98554768862771 C-103.74820651987373 -24.42095853530513, -103.20221858755212 -24.85636938198255, -102.71548171047331 -25.244529088840626 C-102.27971182514383 -25.54850329667217, -101.84394193981437 -25.85247750450371, -101.0593493881323 -26.39977530409297 C-100.56501091208061 -26.69944619333085, -100.0706724360289 -26.99911708256873, -99.33260288812404 -27.446539179886763 C-98.76680792642976 -27.741714048993696, -98.2010129647355 -28.036888918100633, -97.54233778220309 -28.3805193389262 C-96.88283100263669 -28.67246342666672, -96.2233242230703 -28.964407514407238, -95.6959106537003 -29.19787785639968 C-95.22404327832791 -29.37152941243092, -94.75217590295553 -29.54518096846216, -93.80090886774407 -29.895256030836055 C-93.22345693131096 -30.066640734462336, -92.64600499487786 -30.238025438088613, -91.86511939314951 -30.469788185729417 C-91.33935625835588 -30.589790190320972, -90.81359312356224 -30.70979219491253, -89.89649680409325 -30.919113445218553 C-89.27974985582074 -31.018824308871235, -88.66300290754822 -31.11853517252392, -87.90313059306196 -31.24138543543225 C-87.20894017940284 -31.308353149751824, -86.51474976574374 -31.375320864071398, -85.89321192939246 -31.435279871635593 C-85.26192187174749 -31.455524115052715, -84.63063181410251 -31.475768358469836, -83.87500000000001 -31.5 C-83.87500000000001 -31.5, -83.875 -31.5, -83.875 -31.5" stroke="none" stroke-width="0" fill="#ECECFF" style=""/><path d="M-83.875 -31.5 C-23.08859699904839 -31.5, 37.69780600190322 -31.5, 83.875 -31.5 M-83.875 -31.5 C-47.14721600577911 -31.5, -10.419432011558214 -31.5, 83.875 -31.5 M83.875 -31.5 C83.875 -31.5, 83.875 -31.5, 83.875 -31.5 M83.875 -31.5 C83.875 -31.5, 83.875 -31.5, 83.875 -31.5 M83.875 -31.5 C84.54955202081042 -31.478368429628468, 85.22410404162086 -31.45673685925693, 85.89321192939245 -31.435279871635593 M83.875 -31.5 C84.62963793094619 -31.47580023036818, 85.38427586189239 -31.451600460736362, 85.89321192939245 -31.435279871635593 M85.89321192939245 -31.435279871635593 C86.42782885231541 -31.383706020052134, 86.96244577523838 -31.332132168468675, 87.90313059306193 -31.241385435432253 M85.89321192939245 -31.435279871635593 C86.6365500208544 -31.36357093994711, 87.37988811231635 -31.291862008258626, 87.90313059306193 -31.241385435432253 M87.90313059306193 -31.241385435432253 C88.41529209217687 -31.158583136127096, 88.92745359129181 -31.075780836821938, 89.89649680409322 -30.91911344521856 M87.90313059306193 -31.241385435432253 C88.39837754887306 -31.161317748314215, 88.8936245046842 -31.081250061196172, 89.89649680409322 -30.91911344521856 M89.89649680409322 -30.91911344521856 C90.66690098416672 -30.74327371847389, 91.43730516424021 -30.56743399172922, 91.86511939314947 -30.469788185729428 M89.89649680409322 -30.91911344521856 C90.5085526286355 -30.7794156973043, 91.1206084531778 -30.63971794939004, 91.86511939314947 -30.469788185729428 M91.86511939314947 -30.469788185729428 C92.35243550166848 -30.325155322695437, 92.83975161018749 -30.18052245966145, 93.80090886774406 -29.895256030836062 M91.86511939314947 -30.469788185729428 C92.38777025170693 -30.314668154359918, 92.91042111026437 -30.159548122990408, 93.80090886774406 -29.895256030836062 M93.80090886774406 -29.895256030836062 C94.27127416399006 -29.722157253808398, 94.74163946023606 -29.549058476780733, 95.69591065370028 -29.197877856399685 M93.80090886774406 -29.895256030836062 C94.19926301187436 -29.748658023450766, 94.59761715600467 -29.602060016065472, 95.69591065370028 -29.197877856399685 M95.69591065370028 -29.197877856399685 C96.37219091775479 -28.898508644644014, 97.0484711818093 -28.59913943288834, 97.54233778220308 -28.380519338926202 M95.69591065370028 -29.197877856399685 C96.33279075214925 -28.9159499291932, 96.96967085059822 -28.634022001986715, 97.54233778220308 -28.380519338926202 M97.54233778220308 -28.380519338926202 C98.0709809259039 -28.10472654946958, 98.59962406960473 -27.82893376001295, 99.33260288812403 -27.44653917988677 M97.54233778220308 -28.380519338926202 C98.0423788842853 -28.119648216261517, 98.54241998636752 -27.858777093596835, 99.33260288812403 -27.44653917988677 M99.33260288812403 -27.44653917988677 C99.79850042116144 -27.164109357441685, 100.26439795419884 -26.881679534996604, 101.05934938813228 -26.399775304092984 M99.33260288812403 -27.44653917988677 C99.81375728353454 -27.154860557811837, 100.29491167894504 -26.863181935736904, 101.05934938813228 -26.399775304092984 M101.05934938813228 -26.399775304092984 C101.61373254830418 -26.013061610417267, 102.1681157084761 -25.62634791674155, 102.7154817104733 -25.244529088840633 M101.05934938813228 -26.399775304092984 C101.54270676101234 -26.062606124975282, 102.0260641338924 -25.72543694585758, 102.7154817104733 -25.244529088840633 M102.7154817104733 -25.244529088840633 C103.18061731547797 -24.87359582162769, 103.64575292048265 -24.502662554414744, 104.29419445219533 -23.985547688627737 M102.7154817104733 -25.244529088840633 C103.136265660828 -24.908965085963946, 103.5570496111827 -24.57340108308726, 104.29419445219533 -23.985547688627737 M104.29419445219533 -23.985547688627737 C104.8839454610562 -23.449951426336924, 105.47369646991706 -22.91435516404611, 105.78900034400982 -22.62800452807842 M104.29419445219533 -23.985547688627737 C104.80466230841566 -23.52195428784779, 105.31513016463599 -23.05836088706785, 105.78900034400982 -22.62800452807842 M105.78900034400982 -22.62800452807842 C106.24717502260258 -22.154901555590712, 106.70534970119532 -21.681798583103006, 107.19375690787243 -21.177478043231485 M105.78900034400982 -22.62800452807842 C106.28184192137712 -22.119105136400677, 106.77468349874441 -21.61020574472293, 107.19375690787243 -21.177478043231485 M107.19375690787243 -21.177478043231485 C107.53395578675693 -20.77786108222915, 107.87415466564144 -20.378244121226817, 108.50269169774293 -19.63992875855011 M107.19375690787243 -21.177478043231485 C107.69032753116271 -20.594177933445813, 108.18689815445298 -20.01087782366014, 108.50269169774293 -19.63992875855011 M108.50269169774293 -19.63992875855011 C108.82105679899729 -19.213348526526666, 109.13942190025163 -18.786768294503222, 109.7104260198041 -18.02167479384835 M108.50269169774293 -19.63992875855011 C108.83458652856822 -19.195219921485325, 109.16648135939352 -18.750511084420538, 109.7104260198041 -18.02167479384835 M109.7104260198041 -18.02167479384835 C109.99681896373045 -17.58169832470401, 110.28321190765679 -17.14172185555967, 110.8119970346684 -16.329365901781543 M109.7104260198041 -18.02167479384835 C109.99349664289079 -17.58680230168178, 110.27656726597748 -17.151929809515206, 110.8119970346684 -16.329365901781543 M110.8119970346684 -16.329365901781543 C111.12265168778568 -15.777767107977086, 111.43330634090296 -15.226168314172629, 111.8028781507495 -14.56995614258631 M110.8119970346684 -16.329365901781543 C111.11450317309851 -15.792235620930724, 111.41700931152864 -15.255105340079904, 111.8028781507495 -14.56995614258631 M111.8028781507495 -14.56995614258631 C112.06087092797117 -14.034228620524425, 112.31886370519281 -13.49850109846254, 112.67899762499809 -12.750675308355413 M111.8028781507495 -14.56995614258631 C112.14688433360747 -13.85561994332855, 112.49089051646546 -13.14128374407079, 112.67899762499809 -12.750675308355413 M112.67899762499809 -12.750675308355413 C112.90877091640404 -12.183130836218352, 113.13854420780999 -11.615586364081292, 113.43675529456745 -10.878999214271206 M112.67899762499809 -12.750675308355413 C112.88594958815536 -12.239499958212948, 113.09290155131262 -11.728324608070483, 113.43675529456745 -10.878999214271206 M113.43675529456745 -10.878999214271206 C113.67555840452283 -10.159762295194135, 113.91436151447822 -9.440525376117064, 114.07303737065482 -8.962618978877531 M113.43675529456745 -10.878999214271206 C113.64410777247923 -10.254486587931769, 113.851460250391 -9.629973961592334, 114.07303737065482 -8.962618978877531 M114.07303737065482 -8.962618978877531 C114.27118369475129 -8.207001167937568, 114.46933001884777 -7.451383356997605, 114.58522923372745 -7.009409419623907 M114.07303737065482 -8.962618978877531 C114.18531669728851 -8.53444924425525, 114.29759602392221 -8.106279509632966, 114.58522923372745 -7.009409419623907 M114.58522923372745 -7.009409419623907 C114.69301834023643 -6.455935138935984, 114.80080744674542 -5.902460858248061, 114.97122617755518 -5.027396693551458 M114.58522923372745 -7.009409419623907 C114.68242418440798 -6.510333890039443, 114.77961913508852 -6.01125836045498, 114.97122617755518 -5.027396693551458 M114.97122617755518 -5.027396693551458 C115.03145337237675 -4.560286463720175, 115.09168056719832 -4.093176233888892, 115.22944205789975 -3.024725316091981 M114.97122617755518 -5.027396693551458 C115.02844130716191 -4.583647446726973, 115.08565643676863 -4.139898199902488, 115.22944205789975 -3.024725316091981 M115.22944205789975 -3.024725316091981 C115.27121640628653 -2.374056120320857, 115.3129907546733 -1.7233869245497333, 115.35881581032167 -1.0096246935071378 M115.22944205789975 -3.024725316091981 C115.26579213731966 -2.45854348787086, 115.30214221673957 -1.8923616596497386, 115.35881581032167 -1.0096246935071378 M115.35881581032167 -1.0096246935071378 C115.35881581032167 -0.3235735203552029, 115.35881581032167 0.36247765279673194, 115.35881581032167 1.00962469350713 M115.35881581032167 -1.0096246935071378 C115.35881581032167 -0.25665513854434463, 115.35881581032167 0.49631441641844853, 115.35881581032167 1.00962469350713 M115.35881581032167 1.00962469350713 C115.3291124896039 1.4722778897754503, 115.29940916888611 1.9349310860437705, 115.22944205789975 3.02472531609196 M115.35881581032167 1.00962469350713 C115.310654200855 1.759780636302102, 115.26249259138831 2.509936579097074, 115.22944205789975 3.02472531609196 M115.22944205789975 3.02472531609196 C115.15968062910612 3.565781181863018, 115.08991920031251 4.106837047634076, 114.97122617755518 5.027396693551435 M115.22944205789975 3.02472531609196 C115.16136209015349 3.552740102021694, 115.09328212240723 4.080754887951429, 114.97122617755518 5.027396693551435 M114.97122617755518 5.027396693551435 C114.83639703184306 5.719715860633127, 114.70156788613095 6.412035027714819, 114.58522923372745 7.0094094196239 M114.97122617755518 5.027396693551435 C114.85492439869337 5.624581747617145, 114.73862261983157 6.221766801682856, 114.58522923372745 7.0094094196239 M114.58522923372745 7.0094094196239 C114.41147459459012 7.672011164391494, 114.23771995545279 8.334612909159087, 114.07303737065482 8.96261897887751 M114.58522923372745 7.0094094196239 C114.46055791759903 7.484835180911768, 114.3358866014706 7.9602609421996355, 114.07303737065482 8.96261897887751 M114.07303737065482 8.96261897887751 C113.9234091652757 9.413275293462412, 113.77378095989658 9.863931608047315, 113.43675529456746 10.878999214271184 M114.07303737065482 8.96261897887751 C113.89465305534466 9.499884114910776, 113.71626874003452 10.037149250944042, 113.43675529456746 10.878999214271184 M113.43675529456746 10.878999214271184 C113.14590127230886 11.597414272529875, 112.85504725005028 12.315829330788564, 112.67899762499809 12.750675308355405 M113.43675529456746 10.878999214271184 C113.24765448871044 11.346081860753403, 113.0585536828534 11.81316450723562, 112.67899762499809 12.750675308355405 M112.67899762499809 12.750675308355405 C112.38037956733656 13.370762094492449, 112.08176150967503 13.99084888062949, 111.8028781507495 14.569956142586303 M112.67899762499809 12.750675308355405 C112.45899381881448 13.207517919223045, 112.23899001263085 13.664360530090686, 111.8028781507495 14.569956142586303 M111.8028781507495 14.569956142586303 C111.42945436038056 15.233007895645471, 111.05603057001161 15.896059648704638, 110.81199703466841 16.329365901781536 M111.8028781507495 14.569956142586303 C111.49693273183709 15.113193214198365, 111.19098731292466 15.656430285810425, 110.81199703466841 16.329365901781536 M110.81199703466841 16.329365901781536 C110.43169248559639 16.913615815226596, 110.05138793652435 17.497865728671655, 109.71042601980412 18.021674793848334 M110.81199703466841 16.329365901781536 C110.53636861698844 16.75280516793142, 110.26074019930846 17.176244434081305, 109.71042601980412 18.021674793848334 M109.71042601980412 18.021674793848334 C109.24788685219325 18.64143514026187, 108.78534768458238 19.2611954866754, 108.50269169774295 19.639928758550102 M109.71042601980412 18.021674793848334 C109.36627217118541 18.482809597936797, 109.02211832256671 18.94394440202526, 108.50269169774295 19.639928758550102 M108.50269169774295 19.639928758550102 C107.98321928562558 20.25013061264077, 107.46374687350823 20.86033246673144, 107.19375690787246 21.177478043231467 M108.50269169774295 19.639928758550102 C108.07585649698491 20.141313672971446, 107.64902129622689 20.64269858739279, 107.19375690787246 21.177478043231467 M107.19375690787246 21.177478043231467 C106.65203090848598 21.736854614129697, 106.11030490909951 22.296231185027928, 105.78900034400982 22.628004528078414 M107.19375690787246 21.177478043231467 C106.76704600312179 21.61809208600334, 106.34033509837113 22.058706128775217, 105.78900034400982 22.628004528078414 M105.78900034400982 22.628004528078414 C105.36096843814579 23.016731779880498, 104.93293653228176 23.405459031682586, 104.29419445219536 23.985547688627715 M105.78900034400982 22.628004528078414 C105.43175807295655 22.952442506536464, 105.07451580190327 23.276880484994518, 104.29419445219536 23.985547688627715 M104.29419445219536 23.985547688627715 C103.96034357333613 24.251784880372945, 103.62649269447692 24.51802207211818, 102.71548171047331 25.24452908884063 M104.29419445219536 23.985547688627715 C103.8719340429684 24.322289128164808, 103.44967363374144 24.6590305677019, 102.71548171047331 25.24452908884063 M102.71548171047331 25.24452908884063 C102.0891706214835 25.68141659194985, 101.46285953249371 26.11830409505907, 101.05934938813229 26.399775304092973 M102.71548171047331 25.24452908884063 C102.36153089495086 25.491429855465242, 102.0075800794284 25.738330622089855, 101.05934938813229 26.399775304092973 M101.05934938813229 26.399775304092973 C100.4658613807606 26.759551221884358, 99.87237337338891 27.119327139675743, 99.33260288812404 27.446539179886766 M101.05934938813229 26.399775304092973 C100.53426099840462 26.71808697170778, 100.00917260867695 27.036398639322584, 99.33260288812404 27.446539179886766 M99.33260288812404 27.446539179886766 C98.64692035643675 27.8042593174674, 97.96123782474947 28.161979455048037, 97.54233778220309 28.3805193389262 M99.33260288812404 27.446539179886766 C98.67240571326505 27.79096362313423, 98.01220853840607 28.135388066381687, 97.54233778220309 28.3805193389262 M97.54233778220309 28.3805193389262 C96.89604073424336 28.666615870337218, 96.24974368628362 28.952712401748233, 95.6959106537003 29.197877856399682 M97.54233778220309 28.3805193389262 C96.94558914969694 28.64468225661744, 96.34884051719078 28.90884517430868, 95.6959106537003 29.197877856399682 M95.6959106537003 29.197877856399682 C95.18768691136034 29.384908891549557, 94.67946316902041 29.571939926699432, 93.80090886774407 29.895256030836055 M95.6959106537003 29.197877856399682 C95.00486094862295 29.452190535861593, 94.31381124354559 29.706503215323508, 93.80090886774407 29.895256030836055 M93.80090886774407 29.895256030836055 C93.19899466609333 30.07390100637388, 92.59708046444258 30.252545981911705, 91.86511939314951 30.46978818572942 M93.80090886774407 29.895256030836055 C93.18591354388475 30.077783414781173, 92.57091822002543 30.26031079872629, 91.86511939314951 30.46978818572942 M91.86511939314951 30.46978818572942 C91.25639127486043 30.608726406406696, 90.64766315657135 30.747664627083974, 89.89649680409323 30.919113445218557 M91.86511939314951 30.46978818572942 C91.31063233047925 30.59634623941767, 90.75614526780899 30.72290429310592, 89.89649680409323 30.919113445218557 M89.89649680409323 30.919113445218557 C89.39195096014271 31.00068450445702, 88.88740511619218 31.082255563695483, 87.90313059306196 31.24138543543225 M89.89649680409323 30.919113445218557 C89.1114752399589 31.04602964377464, 88.32645367582458 31.172945842330726, 87.90313059306196 31.24138543543225 M87.90313059306196 31.24138543543225 C87.46880770878778 31.28328404172849, 87.03448482451361 31.32518264802473, 85.89321192939245 31.435279871635593 M87.90313059306196 31.24138543543225 C87.36917468185294 31.292895520010646, 86.83521877064392 31.344405604589042, 85.89321192939245 31.435279871635593 M85.89321192939245 31.435279871635593 C85.26940625584561 31.455284105422155, 84.64560058229878 31.475288339208717, 83.875 31.5 M85.89321192939245 31.435279871635593 C85.1366575886063 31.459541096800915, 84.38010324782014 31.483802321966238, 83.875 31.5 M83.875 31.5 C83.875 31.5, 83.875 31.5, 83.875 31.5 M83.875 31.5 C83.875 31.5, 83.875 31.5, 83.875 31.5 M83.875 31.5 C39.613056808795534 31.5, -4.648886382408932 31.5, -83.875 31.5 M83.875 31.5 C27.024638905674138 31.5, -29.825722188651724 31.5, -83.875 31.5 M-83.875 31.5 C-84.60830824928023 31.476484231743502, -85.34161649856046 31.452968463487, -85.89321192939244 31.435279871635593 M-83.875 31.5 C-84.38020440016228 31.483799078207504, -84.88540880032458 31.46759815641501, -85.89321192939244 31.435279871635593 M-85.89321192939244 31.435279871635593 C-86.35714628318757 31.39052468248767, -86.8210806369827 31.34576949333975, -87.90313059306195 31.24138543543225 M-85.89321192939244 31.435279871635593 C-86.34777620393322 31.39142860276417, -86.80234047847401 31.347577333892744, -87.90313059306195 31.24138543543225 M-87.90313059306195 31.24138543543225 C-88.63988061377273 31.122273405665474, -89.37663063448352 31.0031613758987, -89.89649680409323 30.919113445218557 M-87.90313059306195 31.24138543543225 C-88.42244600626537 31.157426546776698, -88.9417614194688 31.073467658121146, -89.89649680409323 30.919113445218557 M-89.89649680409323 30.919113445218557 C-90.6297704214228 30.751748527120622, -91.36304403875238 30.584383609022687, -91.86511939314947 30.469788185729428 M-89.89649680409323 30.919113445218557 C-90.41591438879055 30.8005597710279, -90.93533197348788 30.68200609683724, -91.86511939314947 30.469788185729428 M-91.86511939314947 30.469788185729428 C-92.42671974939604 30.30310814789587, -92.98832010564263 30.13642811006231, -93.80090886774403 29.89525603083607 M-91.86511939314947 30.469788185729428 C-92.26486580562862 30.351145548817357, -92.66461221810775 30.232502911905286, -93.80090886774403 29.89525603083607 M-93.80090886774403 29.89525603083607 C-94.54214983663353 29.62247250232833, -95.28339080552303 29.34968897382059, -95.69591065370028 29.197877856399685 M-93.80090886774403 29.89525603083607 C-94.38878387138232 29.678912595240217, -94.9766588750206 29.462569159644367, -95.69591065370028 29.197877856399685 M-95.69591065370028 29.197877856399685 C-96.36360332864221 28.902310115602372, -97.03129600358415 28.606742374805062, -97.54233778220308 28.380519338926206 M-95.69591065370028 29.197877856399685 C-96.41703130453098 28.878659135561012, -97.13815195536166 28.55944041472234, -97.54233778220308 28.380519338926206 M-97.54233778220308 28.380519338926206 C-98.04843111546765 28.116490771130326, -98.55452444873224 27.852462203334447, -99.33260288812403 27.446539179886773 M-97.54233778220308 28.380519338926206 C-97.91293039642345 28.187181409463335, -98.28352301064382 27.993843480000468, -99.33260288812403 27.446539179886773 M-99.33260288812403 27.446539179886773 C-99.81494066668607 27.154143183991046, -100.29727844524812 26.86174718809532, -101.05934938813226 26.399775304092994 M-99.33260288812403 27.446539179886773 C-99.95583260983747 27.068733660079705, -100.57906233155092 26.690928140272636, -101.05934938813226 26.399775304092994 M-101.05934938813226 26.399775304092994 C-101.47100153706735 26.112624585130188, -101.88265368600246 25.825473866167382, -102.7154817104733 25.244529088840636 M-101.05934938813226 26.399775304092994 C-101.49233508779095 26.097743223659933, -101.92532078744965 25.795711143226875, -102.7154817104733 25.244529088840636 M-102.7154817104733 25.244529088840636 C-103.1343070583138 24.91052701934842, -103.5531324061543 24.576524949856207, -104.29419445219533 23.98554768862774 M-102.7154817104733 25.244529088840636 C-103.14780908588726 24.899759511662626, -103.58013646130124 24.554989934484613, -104.29419445219533 23.98554768862774 M-104.29419445219533 23.98554768862774 C-104.62806438550602 23.682335848909325, -104.96193431881673 23.37912400919091, -105.7890003440098 22.628004528078435 M-104.29419445219533 23.98554768862774 C-104.77046413957083 23.553012159958705, -105.24673382694633 23.12047663128967, -105.7890003440098 22.628004528078435 M-105.7890003440098 22.628004528078435 C-106.33633355062635 22.06283805535488, -106.88366675724289 21.497671582631327, -107.19375690787244 21.177478043231478 M-105.7890003440098 22.628004528078435 C-106.09392574858944 22.313144013008657, -106.39885115316909 21.998283497938882, -107.19375690787244 21.177478043231478 M-107.19375690787244 21.177478043231478 C-107.54280590071973 20.767465234782716, -107.891854893567 20.357452426333957, -108.50269169774293 19.639928758550113 M-107.19375690787244 21.177478043231478 C-107.59395371713505 20.70738409922808, -107.99415052639765 20.237290155224677, -108.50269169774293 19.639928758550113 M-108.50269169774293 19.639928758550113 C-108.98376717720981 18.99533144294227, -109.46484265667671 18.350734127334427, -109.7104260198041 18.021674793848355 M-108.50269169774293 19.639928758550113 C-108.75367769533585 19.303630387070367, -109.00466369292877 18.96733201559062, -109.7104260198041 18.021674793848355 M-109.7104260198041 18.021674793848355 C-110.08304359628389 17.449234134546153, -110.45566117276367 16.876793475243947, -110.8119970346684 16.329365901781557 M-109.7104260198041 18.021674793848355 C-110.14896389421617 17.347962854843647, -110.58750176862823 16.674250915838943, -110.8119970346684 16.329365901781557 M-110.8119970346684 16.329365901781557 C-111.05950871952206 15.889883842048025, -111.30702040437572 15.450401782314493, -111.8028781507495 14.569956142586314 M-110.8119970346684 16.329365901781557 C-111.19848087938617 15.643124699752153, -111.58496472410393 14.956883497722751, -111.8028781507495 14.569956142586314 M-111.8028781507495 14.569956142586314 C-112.0810312527891 13.992365274678134, -112.35918435482868 13.414774406769954, -112.67899762499809 12.750675308355417 M-111.8028781507495 14.569956142586314 C-112.00683328303603 14.14643894645259, -112.21078841532257 13.722921750318868, -112.67899762499809 12.750675308355417 M-112.67899762499809 12.750675308355417 C-112.96665496512361 12.040156116769056, -113.25431230524913 11.329636925182697, -113.43675529456745 10.878999214271209 M-112.67899762499809 12.750675308355417 C-112.84953899590981 12.329434825010376, -113.02008036682152 11.908194341665334, -113.43675529456745 10.878999214271209 M-113.43675529456745 10.878999214271209 C-113.61899604372856 10.330119113918155, -113.80123679288967 9.7812390135651, -114.07303737065482 8.962618978877522 M-113.43675529456745 10.878999214271209 C-113.6422495362928 10.26008329925557, -113.84774377801814 9.64116738423993, -114.07303737065482 8.962618978877522 M-114.07303737065482 8.962618978877522 C-114.23177019387106 8.35730192871321, -114.3905030170873 7.7519848785489005, -114.58522923372743 7.009409419623911 M-114.07303737065482 8.962618978877522 C-114.2361493421709 8.340602338311042, -114.39926131368698 7.718585697744562, -114.58522923372743 7.009409419623911 M-114.58522923372743 7.009409419623911 C-114.72897049127151 6.271328441860628, -114.87271174881559 5.533247464097343, -114.97122617755518 5.027396693551461 M-114.58522923372743 7.009409419623911 C-114.6930440171166 6.455803293583083, -114.80085880050578 5.902197167542253, -114.97122617755518 5.027396693551461 M-114.97122617755518 5.027396693551461 C-115.02905619949549 4.578878463211937, -115.08688622143579 4.1303602328724125, -115.22944205789975 3.024725316091999 M-114.97122617755518 5.027396693551461 C-115.02780288278001 4.588598940161782, -115.08437958800485 4.149801186772104, -115.22944205789975 3.024725316091999 M-115.22944205789975 3.024725316091999 C-115.2660673081354 2.454257480301817, -115.30269255837105 1.8837896445116356, -115.35881581032167 1.0096246935071416 M-115.22944205789975 3.024725316091999 C-115.2642062667794 2.4832447016271453, -115.29897047565905 1.9417640871622914, -115.35881581032167 1.0096246935071416 M-115.35881581032167 1.0096246935071416 C-115.35881581032167 0.510097091664169, -115.35881581032167 0.01056948982119632, -115.35881581032167 -1.0096246935071262 M-115.35881581032167 1.0096246935071416 C-115.35881581032167 0.3518558825317598, -115.35881581032167 -0.30591292844362195, -115.35881581032167 -1.0096246935071262 M-115.35881581032167 -1.0096246935071262 C-115.32821849075927 -1.48620264340338, -115.29762117119687 -1.9627805932996338, -115.22944205789975 -3.024725316091956 M-115.35881581032167 -1.0096246935071262 C-115.31902534227046 -1.6293933516923267, -115.27923487421927 -2.249162009877527, -115.22944205789975 -3.024725316091956 M-115.22944205789975 -3.024725316091956 C-115.1775923715538 -3.426861244512502, -115.12574268520784 -3.8289971729330485, -114.97122617755518 -5.027396693551446 M-115.22944205789975 -3.024725316091956 C-115.15540163211682 -3.5989682375285725, -115.08136120633388 -4.173211158965189, -114.97122617755518 -5.027396693551446 M-114.97122617755518 -5.027396693551446 C-114.81955097411536 -5.806216806649321, -114.66787577067554 -6.585036919747196, -114.58522923372745 -7.009409419623896 M-114.97122617755518 -5.027396693551446 C-114.86008053790313 -5.598106062525494, -114.74893489825106 -6.1688154314995405, -114.58522923372745 -7.009409419623896 M-114.58522923372745 -7.009409419623896 C-114.39849691525878 -7.721500680243715, -114.2117645967901 -8.433591940863534, -114.07303737065482 -8.962618978877506 M-114.58522923372745 -7.009409419623896 C-114.4063189220572 -7.691671978242133, -114.22740861038695 -8.37393453686037, -114.07303737065482 -8.962618978877506 M-114.07303737065482 -8.962618978877506 C-113.91909140599365 -9.426279696478408, -113.7651454413325 -9.88994041407931, -113.43675529456746 -10.878999214271168 M-114.07303737065482 -8.962618978877506 C-113.88045555699208 -9.542644717884624, -113.68787374332932 -10.12267045689174, -113.43675529456746 -10.878999214271168 M-113.43675529456746 -10.878999214271168 C-113.20356294843323 -11.454988817690028, -112.970370602299 -12.030978421108887, -112.67899762499809 -12.750675308355401 M-113.43675529456746 -10.878999214271168 C-113.17936461224333 -11.514759175922077, -112.9219739299192 -12.150519137572983, -112.67899762499809 -12.750675308355401 M-112.67899762499809 -12.750675308355401 C-112.47182397294742 -13.180875829644641, -112.26465032089676 -13.611076350933882, -111.8028781507495 -14.5699561425863 M-112.67899762499809 -12.750675308355401 C-112.42483411408088 -13.278451277002926, -112.17067060316369 -13.80622724565045, -111.8028781507495 -14.5699561425863 M-111.8028781507495 -14.5699561425863 C-111.5115001488578 -15.087327290167133, -111.22012214696612 -15.604698437747967, -110.8119970346684 -16.329365901781546 M-111.8028781507495 -14.5699561425863 C-111.5946965085567 -14.939603728976815, -111.38651486636388 -15.309251315367328, -110.8119970346684 -16.329365901781546 M-110.8119970346684 -16.329365901781546 C-110.55642454568356 -16.72199387568478, -110.30085205669872 -17.114621849588016, -109.71042601980412 -18.021674793848344 M-110.8119970346684 -16.329365901781546 C-110.57602339708987 -16.69188477689618, -110.34004975951134 -17.054403652010812, -109.71042601980412 -18.021674793848344 M-109.71042601980412 -18.021674793848344 C-109.34282266016281 -18.514229806412686, -108.97521930052152 -19.006784818977025, -108.50269169774295 -19.639928758550102 M-109.71042601980412 -18.021674793848344 C-109.26485453391477 -18.61869999254263, -108.81928304802544 -19.215725191236913, -108.50269169774295 -19.639928758550102 M-108.50269169774295 -19.639928758550102 C-108.1517851381446 -20.052123570603197, -107.80087857854627 -20.464318382656288, -107.19375690787246 -21.177478043231467 M-108.50269169774295 -19.639928758550102 C-108.23096253352587 -19.95911729666695, -107.95923336930878 -20.278305834783794, -107.19375690787246 -21.177478043231467 M-107.19375690787246 -21.177478043231467 C-106.70160993796596 -21.68566019567761, -106.20946296805944 -22.19384234812375, -105.78900034400984 -22.628004528078403 M-107.19375690787246 -21.177478043231467 C-106.6571543541463 -21.731564235842708, -106.12055180042015 -22.285650428453945, -105.78900034400984 -22.628004528078403 M-105.78900034400984 -22.628004528078403 C-105.48522738008118 -22.90388309652621, -105.18145441615255 -23.179761664974016, -104.29419445219536 -23.98554768862771 M-105.78900034400984 -22.628004528078403 C-105.46784585591232 -22.91966853688645, -105.1466913678148 -23.2113325456945, -104.29419445219536 -23.98554768862771 M-104.29419445219536 -23.98554768862771 C-103.8001304644581 -24.37955057125329, -103.30606647672086 -24.77355345387887, -102.71548171047331 -25.244529088840626 M-104.29419445219536 -23.98554768862771 C-103.82574719288132 -24.35912191202555, -103.35729993356729 -24.73269613542339, -102.71548171047331 -25.244529088840626 M-102.71548171047331 -25.244529088840626 C-102.27039875432685 -25.554999691717757, -101.8253157981804 -25.865470294594893, -101.0593493881323 -26.39977530409297 M-102.71548171047331 -25.244529088840626 C-102.26295298283556 -25.560193539587832, -101.81042425519782 -25.87585799033504, -101.0593493881323 -26.39977530409297 M-101.0593493881323 -26.39977530409297 C-100.52632971545941 -26.722894962038563, -99.9933100427865 -27.04601461998416, -99.33260288812404 -27.446539179886763 M-101.0593493881323 -26.39977530409297 C-100.70423326529192 -26.61504878465279, -100.34911714245155 -26.830322265212605, -99.33260288812404 -27.446539179886763 M-99.33260288812404 -27.446539179886763 C-98.8900212914648 -27.677433715376843, -98.44743969480558 -27.908328250866923, -97.54233778220309 -28.3805193389262 M-99.33260288812404 -27.446539179886763 C-98.89439992382185 -27.675149385680825, -98.45619695951964 -27.90375959147489, -97.54233778220309 -28.3805193389262 M-97.54233778220309 -28.3805193389262 C-97.14737288957981 -28.55535858067326, -96.75240799695653 -28.730197822420322, -95.6959106537003 -29.19787785639968 M-97.54233778220309 -28.3805193389262 C-96.9610368502473 -28.637844017823554, -96.37973591829149 -28.89516869672091, -95.6959106537003 -29.19787785639968 M-95.6959106537003 -29.19787785639968 C-95.29733822526056 -29.34455619442864, -94.89876579682083 -29.491234532457607, -93.80090886774407 -29.895256030836055 M-95.6959106537003 -29.19787785639968 C-94.99237322407403 -29.456786133930855, -94.28883579444775 -29.71569441146203, -93.80090886774407 -29.895256030836055 M-93.80090886774407 -29.895256030836055 C-93.02729629127886 -30.12486018275565, -92.25368371481365 -30.354464334675246, -91.86511939314951 -30.469788185729417 M-93.80090886774407 -29.895256030836055 C-93.23739239550765 -30.062504761837502, -92.67387592327123 -30.22975349283895, -91.86511939314951 -30.469788185729417 M-91.86511939314951 -30.469788185729417 C-91.2254013230502 -30.615799660679045, -90.58568325295091 -30.76181113562867, -89.89649680409325 -30.919113445218553 M-91.86511939314951 -30.469788185729417 C-91.08343462906693 -30.64820263216147, -90.30174986498436 -30.82661707859352, -89.89649680409325 -30.919113445218553 M-89.89649680409325 -30.919113445218553 C-89.37575214132032 -31.003303403860507, -88.8550074785474 -31.087493362502457, -87.90313059306196 -31.24138543543225 M-89.89649680409325 -30.919113445218553 C-89.18739821568067 -31.033755005851415, -88.4782996272681 -31.148396566484276, -87.90313059306196 -31.24138543543225 M-87.90313059306196 -31.24138543543225 C-87.26406088048057 -31.3030357220112, -86.62499116789917 -31.364686008590148, -85.89321192939246 -31.435279871635593 M-87.90313059306196 -31.24138543543225 C-87.32430550918446 -31.2972239951349, -86.74548042530694 -31.353062554837553, -85.89321192939246 -31.435279871635593 M-85.89321192939246 -31.435279871635593 C-85.4860565044812 -31.44833655363254, -85.07890107956995 -31.461393235629487, -83.87500000000001 -31.5 M-85.89321192939246 -31.435279871635593 C-85.42569158540128 -31.450272339094244, -84.9581712414101 -31.4652648065529, -83.87500000000001 -31.5 M-83.87500000000001 -31.5 C-83.87500000000001 -31.5, -83.875 -31.5, -83.875 -31.5 M-83.87500000000001 -31.5 C-83.87500000000001 -31.5, -83.87500000000001 -31.5, -83.875 -31.5" stroke="#9370DB" stroke-width="1.3" fill="none" stroke-dasharray="0 0" style=""/></g><g class="label" style="" transform="translate(-100, -24)"><rect/><foreignObject width="200" height="48"><div xmlns="http://www.w3.org/1999/xhtml" style="display: table; white-space: break-spaces; line-height: 1.5; max-width: 200px; text-align: center; width: 200px;"><span class="nodeLabel"><p>Petición a una ruta /[locale]/...</p></span></div></foreignObject></g></g><g class="node default" id="my-svg-flowchart-plat-1" data-look="classic" transform="translate(247.00390625, 199.2734375)"><polygon points="78.2734375,0 156.546875,-78.2734375 78.2734375,-156.546875 0,-78.2734375" class="label-container" transform="translate(-77.7734375, 78.2734375)"/><g class="label" style="" transform="translate(-51.2734375, -12)"><rect/><foreignObject width="102.546875" height="24"><div xmlns="http://www.w3.org/1999/xhtml" style="display: table-cell; white-space: nowrap; line-height: 1.5; max-width: 200px; text-align: center;"><span class="nodeLabel"><p>¿es /platform?</p></span></div></foreignObject></g></g><g class="node default sec" id="my-svg-flowchart-platauth-3" data-look="classic" transform="translate(127.390625, 490.78125)"><rect class="basic label-container" style="fill:#fecaca !important;stroke:#b91c1c !important" x="-119.390625" y="-27" width="238.78125" height="54"/><g class="label" style="color:#450a0a !important" transform="translate(-89.390625, -12)"><rect/><foreignObject width="178.78125" height="24"><div style="color: rgb(69, 10, 10) !important; display: table-cell; white-space: nowrap; line-height: 1.5; max-width: 200px; text-align: center;" xmlns="http://www.w3.org/1999/xhtml"><span style="color:#450a0a !important" class="nodeLabel"><p>Auth super-admin aparte</p></span></div></foreignObject></g></g><g class="node default" id="my-svg-flowchart-pub-5" data-look="classic" transform="translate(436.015625, 490.78125)"><polygon points="139.234375,0 278.46875,-139.234375 139.234375,-278.46875 0,-139.234375" class="label-container" transform="translate(-138.734375, 139.234375)"/><g class="label" style="" transform="translate(-100.234375, -24)"><rect/><foreignObject width="200.46875" height="48"><div xmlns="http://www.w3.org/1999/xhtml" style="display: table; white-space: break-spaces; line-height: 1.5; max-width: 200px; text-align: center; width: 200px;"><span class="nodeLabel"><p>¿ruta pública?<br />login·legal·intake·dataroom</p></span></div></foreignObject></g></g><g class="node default" id="my-svg-flowchart-okpub-7" data-look="classic" transform="translate(436.015625, 795.546875)"><rect class="basic label-container" style="" x="-50.6328125" y="-27" width="101.265625" height="54"/><g class="label" style="" transform="translate(-20.6328125, -12)"><rect/><foreignObject width="41.265625" height="24"><div xmlns="http://www.w3.org/1999/xhtml" style="display: table-cell; white-space: nowrap; line-height: 1.5; max-width: 200px; text-align: center;"><span class="nodeLabel"><p>Servir</p></span></div></foreignObject></g></g><g class="node default" id="my-svg-flowchart-sess-9" data-look="classic" transform="translate(628.1796875, 795.546875)"><polygon points="91.53125,0 183.0625,-91.53125 91.53125,-183.0625 0,-91.53125" class="label-container" transform="translate(-91.03125, 91.53125)"/><g class="label" style="" transform="translate(-64.53125, -12)"><rect/><foreignObject width="129.0625" height="24"><div xmlns="http://www.w3.org/1999/xhtml" style="display: table-cell; white-space: nowrap; line-height: 1.5; max-width: 200px; text-align: center;"><span class="nodeLabel"><p>¿cookie de sesión?</p></span></div></foreignObject></g></g><g class="node default sec" id="my-svg-flowchart-tologin-11" data-look="classic" transform="translate(527.54296875, 1050.2578125)"><rect class="basic label-container" style="fill:#fecaca !important;stroke:#b91c1c !important" x="-82.7421875" y="-27" width="165.484375" height="54"/><g class="label" style="color:#450a0a !important" transform="translate(-52.7421875, -12)"><rect/><foreignObject width="105.484375" height="24"><div style="color: rgb(69, 10, 10) !important; display: table-cell; white-space: nowrap; line-height: 1.5; max-width: 200px; text-align: center;" xmlns="http://www.w3.org/1999/xhtml"><span style="color:#450a0a !important" class="nodeLabel"><p>redirect /login</p></span></div></foreignObject></g></g><g class="node default" id="my-svg-flowchart-scope-13" data-look="classic" transform="translate(749.46484375, 1050.2578125)"><polygon points="89.1796875,0 178.359375,-89.1796875 89.1796875,-178.359375 0,-89.1796875" class="label-container" transform="translate(-88.6796875, 89.1796875)"/><g class="label" style="" transform="translate(-62.1796875, -12)"><rect/><foreignObject width="124.359375" height="24"><div xmlns="http://www.w3.org/1999/xhtml" style="display: table-cell; white-space: nowrap; line-height: 1.5; max-width: 200px; text-align: center;"><span class="nodeLabel"><p>scope del usuario</p></span></div></foreignObject></g></g><g class="node default sec" id="my-svg-flowchart-toportal-15" data-look="classic" transform="translate(369.1328125, 1252.4375)"><rect class="basic label-container" style="fill:#fecaca !important;stroke:#b91c1c !important" x="-87.015625" y="-27" width="174.03125" height="54"/><g class="label" style="color:#450a0a !important" transform="translate(-57.015625, -12)"><rect/><foreignObject width="114.03125" height="24"><div style="color: rgb(69, 10, 10) !important; display: table-cell; white-space: nowrap; line-height: 1.5; max-width: 200px; text-align: center;" xmlns="http://www.w3.org/1999/xhtml"><span style="color:#450a0a !important" class="nodeLabel"><p>redirect /portal</p></span></div></foreignObject></g></g><g class="node default sec" id="my-svg-flowchart-todash-17" data-look="classic" transform="translate(608.359375, 1252.4375)"><rect class="basic label-container" style="fill:#fecaca !important;stroke:#b91c1c !important" x="-102.2109375" y="-27" width="204.421875" height="54"/><g class="label" style="color:#450a0a !important" transform="translate(-72.2109375, -12)"><rect/><foreignObject width="144.421875" height="24"><div style="color: rgb(69, 10, 10) !important; display: table-cell; white-space: nowrap; line-height: 1.5; max-width: 200px; text-align: center;" xmlns="http://www.w3.org/1999/xhtml"><span style="color:#450a0a !important" class="nodeLabel"><p>redirect /dashboard</p></span></div></foreignObject></g></g><g class="node default" id="my-svg-flowchart-okapp-19" data-look="classic" transform="translate(890.5703125, 1252.4375)"><rect class="basic label-container" style="" x="-130" y="-39" width="260" height="78"/><g class="label" style="" transform="translate(-100, -24)"><rect/><foreignObject width="200" height="48"><div xmlns="http://www.w3.org/1999/xhtml" style="display: table; white-space: break-spaces; line-height: 1.5; max-width: 200px; text-align: center; width: 200px;"><span class="nodeLabel"><p>Servir + AppShell/PortalShell</p></span></div></foreignObject></g></g></g></g></g><defs><filter id="my-svg-drop-shadow" height="130%" width="130%"><feDropShadow dx="4" dy="4" stdDeviation="0" flood-opacity="0.06" flood-color="#000000"/></filter></defs><defs><filter id="my-svg-drop-shadow-small" height="150%" width="150%"><feDropShadow dx="2" dy="2" stdDeviation="0" flood-opacity="0.06" flood-color="#000000"/></filter></defs></svg>